`                            __     __   __            __  __ 
                  .-----..--|  |.--|  | |  |--..---.-.|  ||  |
                  |  _  ||  _  ||  _  | |  _  ||  _  ||  ||  |
                  |_____||_____||_____| |_____||___._||__||__|
                                  -links.com   `        

 Tears of the Sun is a 2003 war film, depicting a U.S. Navy SEALs rescue mission amidst a civil war in the West African country of Nigeria. Lt. A.K. Waters (Bruce Willis) commands the team sent to rescue U.S. citizen Dr. Lena Fiore Kendricks (Monica Bellucci) from the civil war en route to her jungle hospital. The film was directed by Antoine Fuqua.

Willis produced Tears of the Sun through Cheyenne Enterprises, his production company, and took the title from an early sub–title for Live Free or Die Hard, the fourth film in the Die Hard series; he filmed the sequel on condition he could use its sub-title for his SEALs war film.


Screen Shots

 
http://i724.photobucket.com/albums/ww246/oddball-links/TearsOfTheSun/5.jpg
 
http://i724.photobucket.com/albums/ww246/oddball-links/TearsOfTheSun/4.jpg
 
http://i724.photobucket.com/albums/ww246/oddball-links/TearsOfTheSun/3.jpg
 
http://i724.photobucket.com/albums/ww246/oddball-links/TearsOfTheSun/2.jpg
 
http://i724.photobucket.com/albums/ww246/oddball-links/TearsOfTheSun/1.jpg


                                    +-+-+-+-+
                                    |c|a|s|t|
                                    +-+-+-+-+

 

 

               Actor                                Role


               Bruce Willis .....................  Lieutenant A.K. Waters 

               Monica Bellucci ..................  Dr. Lena Fiore Kendricks 

               Cole Hauser ................... ..  James 'Red' Atkins 

               Eamonn Walker ....................  Ellis 'Zee' Pettigrew 

               Johnny Messner ...................  Kelly Lake 

               Nick Chinlund ....................  Michael 'Slo' Slowenski 
              
               Charles Ingram ...................  Demetrius 'Silk' Owens 

               Paul Francis .....................  Danny 'Doc' Kelley 
             
               Chad Smith .......................  Jason 'Flea' Mabry 

               Tom Skerritt .....................  Captain Bill Rhodes 

               Malick Bowens ....................  Colonel Idris Sadick 

               Awaovieyi Agie ...................  Musa 

               Akosua Busia .....................  Patience 

               Hadar Busia-Singleton ............  Amaka 

               Ida Onyango ......................  Lasana 

General
Complete name                    : Tears Of The Sun 
Format                           : AVI
Format/Info                      : Audio Video Interleave
File size                        : 1.31 GiB
Duration                         : 1h 55mn
Overall bit rate                 : 1 620 Kbps

Video
Format                           : MPEG-4 Visual
Format profile                   : Streaming Video@L1
Format settings, BVOP            : Yes
Format settings, QPel            : No
Format settings, GMC             : No warppoints
Format settings, Matrix          : Default
Muxing mode                      : Packed bitstream
Codec ID                         : XVID
Codec ID/Hint                    : XviD
Duration                         : 1h 55mn
Bit rate                         : 1 416 Kbps
Width                            : 1 024 pixels
Height                           : 582 pixels
Display aspect ratio             : 16/9
Frame rate                       : 29.970 fps
Resolution                       : 24 bits
Colorimetry                      : 4:2:0
Scan type                        : Progressive
Bits/(Pixel*Frame)               : 0.079
Stream size                      : 1.15 GiB (87%)
Writing library                  : XviD 1.1.0 (UTC 2005-11-22)

Audio
Format                           : MPEG Audio
Format version                   : Version 1
Format profile                   : Layer 3
Codec ID                         : 55
Codec ID/Hint                    : MP3
Duration                         : 1h 55mn
Bit rate mode                    : Constant
Bit rate                         : 192 Kbps
Channel(s)                       : 2 channels
Sampling rate                    : 44.1 KHz
Resolution                       : 16 bits
Video delay                      : 26ms
Stream size                      : 159 MiB (12%)
Alignment                        : Split accross interleaves
Interleave, duration             : 33 ms (1.00 video frame)
Title                            : Audio Stream
Writing library                  : LAME3.92

For more oddball torrents  http://thepiratebay.org/user/oddball-links `                                                                                                            Please seed after downloading `                                                                                            :::===  :::===== :::===== :::====       :::= === :::====  :::====
        :::     :::      :::      :::  ===      :::===== :::  === :::====
         =====  ======   ======   ===  ===      ======== ===  ===   ===  
            === ===      ===      ===  ===      === ==== ===  ===   ===  
        ======  ======== ======== =======       ===  ===  ======    ===  
                                                                         
                  :::=====  :::====  :::===== :::===== :::==== 
                  :::       :::  === :::      :::      :::  ===
                  === ===== =======  ======   ======   ===  ===
                  ===   === === ===  ===      ===      ===  ===
                   =======  ===  === ======== ======== =======